<svg version="1.1" id="Layer_1" xmlns="http://www.w3.org/2000/svg" xmlns:xlink="http://www.w3.org/1999/xlink" x="0px" y="0px"
	 width="100%" viewBox="0 0 592 592" enable-background="new 0 0 592 592" xml:space="preserve">
<path fill="#000000" opacity="1.000000" stroke="none" 
	d="
M237.000000,464.133484 
	C209.171066,464.141479 181.842117,464.151611 154.513184,464.154724 
	C147.954300,464.155457 147.754684,463.970734 147.754532,457.455688 
	C147.752014,352.805939 147.754501,248.156189 147.762436,143.506439 
	C147.762939,136.984497 147.833801,136.888687 154.551682,136.887436 
	C252.369156,136.869156 350.186646,136.892059 448.003998,136.778824 
	C452.772247,136.773315 454.338776,138.273361 454.334106,143.074997 
	C454.231750,248.057938 454.223877,353.041077 454.364777,458.023926 
	C454.372101,463.463531 452.096375,464.253571 447.465607,464.245789 
	C377.477203,464.127960 307.488586,464.146515 237.000000,464.133484 
M448.939911,274.500000 
	C448.952332,262.335419 448.966644,250.170853 448.976471,238.006271 
	C448.982666,230.311157 448.979645,230.317734 441.334412,230.316864 
	C347.846985,230.306213 254.359589,230.294067 160.872177,230.280243 
	C153.165588,230.279099 153.085220,230.271988 153.079971,238.030319 
	C153.051346,280.357178 153.121872,322.684204 152.984116,365.010620 
	C152.969177,369.600403 154.443314,370.992493 159.015198,370.987488 
	C253.502213,370.884033 347.989441,370.880096 442.476349,371.026184 
	C447.570618,371.034088 449.036621,369.485565 449.005951,364.487335 
	C448.823853,334.825897 448.931976,305.162628 448.939911,274.500000 
M373.237305,201.499817 
	C373.234283,205.995102 373.379211,210.496780 373.185852,214.983856 
	C372.999634,219.304382 373.396667,222.168045 379.128479,222.154099 
	C384.664124,222.140656 384.888031,219.370422 384.796783,215.275177 
	C384.637421,208.119583 384.722412,200.957642 384.773163,193.798843 
	C384.788116,191.689774 384.442108,188.960678 387.625732,188.995392 
	C390.840851,189.030426 390.340485,191.812698 390.355988,193.880585 
	C390.414703,201.705154 390.547424,209.535507 390.312958,217.353516 
	C390.177429,221.873581 392.819366,221.972687 396.091858,222.004623 
	C399.453583,222.037399 401.836243,221.711594 401.810547,217.284103 
	C401.677307,194.309097 401.720459,171.332672 401.814392,148.357178 
	C401.829956,144.550827 400.470581,142.958801 396.535492,143.066132 
	C392.671448,143.171494 390.165405,143.875961 390.303345,148.590134 
	C390.537018,156.574844 390.401093,164.571838 390.333160,172.562927 
	C390.315918,174.594131 390.961365,177.376740 387.575500,177.329224 
	C384.321075,177.283554 384.780518,174.604218 384.769684,172.511414 
	C384.727539,164.353546 384.786285,156.195145 384.735199,148.037384 
	C384.724213,146.284210 385.086853,144.306610 382.810486,143.368790 
	C377.382050,141.132370 373.250824,143.735138 373.240723,149.555191 
	C373.211243,166.536713 373.234619,183.518311 373.237305,201.499817 
M263.239197,179.218369 
	C264.795349,174.332184 263.948669,169.300964 264.000610,164.348099 
	C264.206024,144.758621 261.857697,142.545410 242.254486,143.118927 
	C241.921936,143.128647 241.587708,143.153763 241.256729,143.132812 
	C238.288086,142.944931 237.058594,144.378189 237.064651,147.298538 
	C237.113342,170.755753 237.130768,194.213058 237.113663,217.670303 
	C237.111588,220.525208 238.186722,221.843872 241.204254,221.982437 
	C247.140564,222.255035 247.934280,221.684982 247.983276,215.849640 
	C248.009811,212.689224 247.972687,209.528320 247.986862,206.367737 
	C248.007736,201.710907 247.989349,197.052567 248.115570,192.398346 
	C248.156113,190.903488 248.510620,189.151184 250.480225,189.174271 
	C252.271774,189.195297 252.948471,190.710571 253.117249,192.288864 
	C253.275879,193.772034 253.230423,195.277420 253.266205,196.773239 
	C253.409256,202.753571 253.201431,208.767609 253.776367,214.705978 
	C254.524826,222.436768 257.534332,223.886703 265.319366,220.694275 
	C264.210876,212.193726 264.788116,203.552124 264.632843,194.921570 
	C264.584473,192.232712 264.531311,189.252792 262.505371,187.421295 
	C259.270142,184.496567 260.696320,182.309326 263.239197,179.218369 
M362.757721,211.449921 
	C362.757935,204.120941 362.775757,196.791885 362.744904,189.463043 
	C362.738037,187.831482 363.200836,185.594604 361.486633,184.918213 
	C357.872223,183.492050 353.635345,182.972824 350.387390,184.925400 
	C347.857300,186.446411 348.466736,190.470703 349.672394,192.786301 
	C352.276886,197.788544 350.897308,202.908798 351.175323,207.967773 
	C351.279572,209.864548 350.717560,211.962677 348.346252,211.891037 
	C345.971313,211.819275 345.723755,209.681564 345.703094,207.788528 
	C345.652130,203.125183 345.663208,198.461060 345.660370,193.797256 
	C345.653229,182.137543 345.642853,170.477829 345.657379,158.818146 
	C345.659973,156.742157 345.895020,154.354889 348.502411,154.363495 
	C351.164032,154.372269 351.228333,156.809799 351.250885,158.861130 
	C351.287506,162.192139 351.411011,165.529053 351.266815,168.853424 
	C351.095123,172.811127 353.599365,173.018311 356.498535,172.988617 
	C359.285431,172.960068 362.029816,173.058365 361.956848,169.050705 
	C361.875000,164.554703 361.981018,160.053757 361.829132,155.560913 
	C361.562653,147.677643 356.156952,142.278732 348.607025,142.189102 
	C341.039215,142.099258 335.235687,147.368988 335.106842,155.234741 
	C334.809601,173.384171 334.663300,191.540924 334.830750,209.691254 
	C334.926056,220.020752 341.963043,224.807159 352.081543,221.970978 
	C353.583557,221.549988 354.966187,221.568787 356.481750,221.734421 
	C362.160828,222.355133 362.674164,221.828873 362.752747,215.924118 
	C362.768250,214.758362 362.754913,213.592209 362.757721,211.449921 
M277.944824,170.232468 
	C276.362915,185.613205 274.865173,201.003357 273.148041,216.368988 
	C272.631439,220.991867 274.576050,222.277405 278.806580,222.023224 
	C281.417206,221.866394 282.878540,220.949707 283.130524,218.309052 
	C283.335724,216.158081 283.575653,214.010452 283.787781,211.860123 
	C283.981262,209.898727 285.004395,208.863022 287.020813,208.818161 
	C288.986420,208.774445 290.248657,209.660278 290.518646,211.603943 
	C290.792511,213.575821 291.000763,215.575638 291.000824,217.563217 
	C291.000916,223.423294 295.342682,221.718018 298.531799,221.938797 
	C302.132355,222.188065 302.449280,220.132324 302.130035,217.131485 
	C299.807312,195.298706 297.703033,173.442505 295.332214,151.615158 
	C294.350983,142.581635 294.130463,142.605637 284.876312,143.147034 
	C284.710144,143.156769 284.543152,143.168793 284.377197,143.162460 
	C281.730347,143.061508 280.447052,144.304962 280.211243,146.976562 
	C279.553131,154.432098 278.774292,161.876953 277.944824,170.232468 
M186.017227,144.318558 
	C174.480316,139.031815 164.932190,144.910141 164.105743,157.620224 
	C163.416824,168.215286 168.448792,176.884781 173.091873,185.711884 
	C176.028610,191.294998 179.745728,196.552887 180.985092,202.857590 
	C181.536499,205.662628 182.658142,208.814865 180.041992,211.360748 
	C178.968643,212.405273 177.614349,212.506653 176.340469,211.845398 
	C172.941833,210.081238 173.513214,206.788773 173.693253,203.898315 
	C173.946762,199.828568 172.910660,197.759628 168.260651,197.794022 
	C163.715652,197.827637 162.943527,200.098175 163.215942,203.774475 
	C163.326309,205.263840 163.201401,206.769012 163.241486,208.265457 
	C163.461639,216.481110 168.491455,222.163757 176.102325,222.820312 
	C184.359726,223.532639 190.148834,218.775711 191.876343,210.300751 
	C193.765503,201.032608 189.554443,193.427521 185.618805,185.729996 
	C182.518234,179.665710 178.785431,173.917053 176.644562,167.381805 
	C175.602921,164.202087 174.764938,160.987091 174.947708,157.607193 
	C175.063965,155.457535 175.812073,153.506470 178.202484,153.221130 
	C180.928436,152.895737 181.455017,155.169388 181.733978,157.135345 
	C182.059677,159.430557 182.068695,161.778793 182.099731,164.105560 
	C182.133469,166.635468 183.405914,167.751038 185.842972,167.637100 
	C188.103546,167.531403 191.271790,168.119720 191.554077,165.063095 
	C192.222168,157.828720 193.340317,150.269714 186.017227,144.318558 
M208.371521,214.312042 
	C208.844620,216.767212 207.156250,219.906906 210.249664,221.530228 
	C215.236633,224.147263 219.735931,221.283371 219.748901,215.548294 
	C219.790268,197.260834 219.836212,178.972977 219.745972,160.685944 
	C219.727768,156.996933 219.969925,154.198074 224.692413,153.815750 
	C228.694489,153.491745 227.453354,149.976501 227.610947,147.517197 
	C227.766907,145.083588 227.007568,143.191528 224.089264,143.197067 
	C217.274521,143.209976 210.459656,143.224472 203.645157,143.278336 
	C200.663483,143.301910 200.117233,145.382126 200.268173,147.728195 
	C200.424789,150.162384 199.164963,153.684570 203.326309,153.844681 
	C208.024261,154.025436 208.444031,156.688034 208.416275,160.487473 
	C208.287506,178.109009 208.359116,195.731995 208.371521,214.312042 
M430.784882,182.499893 
	C430.788666,175.008942 430.853729,167.517303 430.768311,160.027374 
	C430.730225,156.687759 431.187561,154.038269 435.390961,153.923309 
	C438.393127,153.841171 438.859314,151.640106 438.474884,149.317627 
	C438.073364,146.892014 438.836060,143.342712 434.918274,143.228516 
	C428.101501,143.029846 421.272552,143.165848 414.450439,143.271866 
	C411.432312,143.318771 411.095734,145.603409 411.246155,147.883209 
	C411.395905,150.152176 410.074585,153.639664 413.885834,153.781509 
	C419.315582,153.983597 419.321808,157.256958 419.300323,161.230865 
	C419.202301,179.374771 419.322968,197.520111 419.173920,215.663345 
	C419.140137,219.778549 419.722534,222.112595 424.769073,222.112854 
	C429.880280,222.113129 430.925751,219.898285 430.848816,215.459824 
	C430.664154,204.809402 430.791962,194.153580 430.784882,182.499893 
M314.036072,221.675034 
	C322.531342,222.452057 323.575470,222.046875 323.589478,217.120102 
	C323.654419,194.296906 323.559113,171.473206 323.635376,148.650085 
	C323.650208,144.216415 321.634216,143.055954 317.469208,143.048370 
	C313.252991,143.040710 312.050995,144.608810 312.073914,148.633896 
	C312.202057,171.127655 312.115112,193.622574 312.136963,216.117065 
	C312.138702,217.900467 311.748260,219.829147 314.036072,221.675034 
M438.449554,431.464600 
	C438.524933,422.496429 438.612244,413.528351 438.665955,404.560059 
	C438.677124,402.697723 438.643860,400.649811 436.234558,400.298004 
	C434.024963,399.975372 431.532166,399.170746 430.058167,401.919403 
	C429.619843,402.736725 429.585754,403.940186 428.232300,403.914337 
	C427.097046,403.512268 427.128357,402.334839 426.592804,401.542358 
	C425.074188,399.295044 422.745361,400.055847 420.676086,400.149719 
	C418.848694,400.232605 418.131500,401.565674 418.130005,403.243286 
	C418.121124,413.043243 418.127747,422.843292 418.175110,432.643066 
	C418.181671,433.996521 418.416595,435.519257 420.259644,435.392426 
	C421.716919,435.292175 421.858887,433.959106 422.005737,432.772064 
	C422.320953,430.223328 421.644897,427.461639 423.602081,425.058258 
	C427.055267,427.746429 424.517700,432.966492 428.156921,435.666199 
	C431.848358,432.950562 429.364075,427.788055 432.634247,425.006012 
	C434.793701,427.078613 433.775940,429.554779 434.095917,431.744904 
	C434.303345,433.164459 433.831177,435.089966 435.808838,435.416382 
	C438.246704,435.818756 438.290436,433.842804 438.449554,431.464600 
M234.175262,411.531281 
	C234.155334,415.692963 234.108536,419.854736 234.120590,424.016327 
	C234.155029,435.917908 234.168427,435.629547 246.039642,435.794067 
	C249.323853,435.839600 250.290573,433.077240 252.865753,432.352325 
	C254.420593,433.383636 254.834778,436.336761 257.455444,435.410126 
	C258.804108,434.933258 258.833313,433.611267 258.730713,432.442963 
	C257.887146,422.839691 257.017792,413.238617 256.125763,403.639709 
	C255.939911,401.639496 255.218964,400.149567 252.773117,400.172302 
	C250.133286,400.196838 249.372757,401.755554 249.187668,404.004303 
	C248.846451,408.149506 248.638107,412.315948 248.055191,416.428314 
	C247.368790,421.270630 247.731415,426.288422 246.250031,431.013336 
	C238.270599,429.614258 236.594193,425.833008 241.136536,420.069244 
	C242.793121,417.967255 243.011032,416.632141 240.837463,414.661133 
	C238.080917,412.161499 238.315155,407.106171 241.059219,405.066345 
	C242.395233,404.073212 244.333344,403.582611 243.419434,401.421387 
	C242.702469,399.725922 240.887970,400.184723 239.446701,400.025696 
	C235.700897,399.612335 233.737411,401.003510 234.137848,405.054199 
	C234.317200,406.868561 234.185745,408.713684 234.175262,411.531281 
M302.046570,435.526093 
	C304.158661,435.895142 306.531830,435.982391 306.590302,433.206665 
	C306.804138,423.054260 306.734467,412.895660 306.734497,402.739380 
	C306.734497,401.697418 306.294769,400.758575 305.125793,400.514435 
	C303.960907,400.271149 303.289398,400.970215 302.743713,401.892822 
	C302.276398,402.682953 302.381042,403.959625 301.009674,404.023438 
	C299.739288,403.712708 299.919769,402.495392 299.509247,401.647858 
	C298.681732,399.939301 297.125793,400.053284 295.621094,400.175934 
	C293.761017,400.327515 293.054810,401.597687 293.034943,403.261444 
	C292.915771,413.250000 292.830566,423.238922 292.753296,433.227905 
	C292.743439,434.500854 293.107635,435.598877 294.677948,435.578613 
	C296.169220,435.559357 296.519592,434.516968 296.750488,433.257812 
	C297.077026,431.476959 296.114563,429.286041 298.172760,427.864929 
	C300.571106,429.890320 299.351227,433.228394 302.046570,435.526093 
M178.059998,408.604309 
	C178.071152,416.255005 178.126740,423.906006 178.080627,431.556335 
	C178.036942,438.804779 183.632935,434.696930 186.546463,435.566956 
	C189.674637,436.501099 189.693756,433.634888 189.696548,431.395996 
	C189.707504,422.580322 189.767227,413.764404 189.710419,404.949188 
	C189.699570,403.265411 190.427643,401.058777 187.908478,400.348053 
	C185.545822,399.681519 184.889084,401.837738 183.656326,403.228821 
	C182.574249,401.949341 182.339386,399.474396 179.827652,400.390198 
	C177.732895,401.154022 178.280777,403.083771 178.116745,404.655396 
	C178.013565,405.643860 178.074448,406.649445 178.059998,408.604309 
M218.209045,417.501068 
	C218.216843,421.657745 218.188568,425.814880 218.241257,429.970978 
	C218.312439,435.585052 219.647720,436.620880 225.172928,435.808960 
	C229.466675,435.177948 230.427795,432.050781 230.536880,428.578552 
	C230.735153,422.267059 230.663162,415.945557 230.617447,409.628845 
	C230.604324,407.816254 230.517075,405.949524 230.076828,404.205292 
	C228.920013,399.621857 225.130798,399.955444 221.620422,400.056000 
	C217.826889,400.164673 218.338760,403.098450 218.284988,405.529663 
	C218.204117,409.186188 218.227615,412.844971 218.209045,417.501068 
M387.084900,421.491150 
	C387.111115,425.317108 387.101990,429.143829 387.181488,432.968689 
	C387.212036,434.439514 387.805756,435.627075 389.561249,435.479706 
	C390.955750,435.362640 391.551514,434.357758 391.616730,433.078827 
	C391.701355,431.419159 391.563232,429.742676 391.727112,428.093903 
	C391.933441,426.017792 390.851135,423.560577 393.465118,421.578400 
	C395.147644,424.750427 394.203613,427.738770 394.293488,430.620148 
	C394.352936,432.524902 393.744690,435.223022 396.522552,435.392426 
	C399.628448,435.581848 398.828156,432.726410 398.868530,430.922424 
	C399.045868,423.000000 397.927063,415.084686 398.708038,407.152191 
	C398.788422,406.335876 398.727142,405.471100 398.548737,404.669525 
	C397.619507,400.494263 394.503479,399.944550 390.899963,399.983337 
	C386.875793,400.026703 387.038757,402.765289 387.051239,405.519531 
	C387.073853,410.510986 387.073822,415.502502 387.084900,421.491150 
M340.845093,400.482239 
	C339.342499,401.493256 338.586639,403.077942 338.481140,404.713837 
	C337.923645,413.355377 337.903900,422.017426 338.500336,430.650696 
	C338.741608,434.142822 341.227356,435.896301 344.732391,435.746490 
	C346.998840,435.649597 349.251770,435.237061 351.520386,434.964813 
	C352.894226,430.542053 349.355835,427.231171 349.795197,423.094818 
	C350.372223,417.662292 350.101349,412.120148 349.931427,406.633301 
	C349.752716,400.861145 347.411255,399.176727 340.845093,400.482239 
M287.448853,433.768921 
	C288.649719,432.044250 288.898193,430.079346 288.896179,428.049591 
	C288.889282,421.050476 288.856628,414.051270 288.889008,407.052338 
	C288.908539,402.823578 287.409485,399.604950 282.758698,399.620819 
	C278.077759,399.636749 277.291687,403.396545 277.216583,407.048035 
	C277.065857,414.377472 277.031250,421.715118 277.201355,429.043488 
	C277.348267,435.373108 281.071991,437.318298 287.448853,433.768921 
M371.238312,414.545898 
	C371.257172,419.541901 371.172668,424.541138 371.329620,429.532776 
	C371.442444,433.119934 373.135254,435.726593 377.049866,435.732513 
	C380.884918,435.738312 382.795685,433.419617 382.821136,429.663208 
	C382.875336,421.670380 382.896210,413.676514 382.825623,405.684021 
	C382.794922,402.206024 380.981964,399.836121 377.436859,399.687256 
	C373.625031,399.527161 371.665497,401.962616 371.356995,405.581055 
	C371.131317,408.227722 371.266113,410.905151 371.238312,414.545898 
M367.527679,422.486969 
	C367.551941,416.846649 367.659088,411.204834 367.555054,405.566864 
	C367.519073,403.617035 368.415680,400.447876 365.150574,400.598724 
	C362.042145,400.742340 363.023041,403.858459 363.014923,405.818634 
	C362.990784,411.633118 363.236389,417.448303 363.258942,423.263672 
	C363.265289,424.902771 363.737152,426.886719 361.706726,427.931976 
	C359.762085,426.515411 360.628326,424.758606 360.649170,423.203369 
	C360.735962,416.723206 360.903107,410.243988 360.970398,403.763733 
	C360.986084,402.250122 360.789825,400.637054 358.806213,400.383392 
	C357.132812,400.169373 356.276917,401.182281 356.253113,402.713440 
	C356.105927,412.179108 355.656586,421.658539 356.530701,431.101440 
	C356.804993,434.064514 358.840179,435.855133 362.032074,435.734985 
	C365.227966,435.614716 366.861877,433.694489 367.173157,430.689423 
	C367.428467,428.225067 367.396210,425.730896 367.527679,422.486969 
M265.932037,416.717651 
	C266.262848,414.530426 265.156586,412.048737 267.229187,410.114960 
	C268.941925,411.002441 268.894257,414.358185 271.622040,413.410339 
	C274.470764,412.420441 273.252563,409.812744 273.442139,407.796844 
	C273.488831,407.300201 273.515839,406.797913 273.500610,406.299805 
	C273.389374,402.670380 271.759186,400.119751 267.995758,399.760529 
	C264.029999,399.381989 262.413025,401.864777 261.889618,405.478882 
	C260.784454,413.110443 261.359344,420.772491 261.406586,428.419647 
	C261.429596,432.135284 262.407806,435.586639 267.058838,435.789612 
	C271.982391,436.004456 273.323120,432.492462 273.435394,428.583588 
	C273.498047,426.401123 275.216431,422.970276 271.875153,422.135345 
	C268.489197,421.289337 269.445038,425.387115 267.996490,426.918152 
	C267.812286,427.112793 267.423218,427.113556 266.790039,427.308594 
	C265.168304,424.201202 266.171997,420.836945 265.932037,416.717651 
M403.109833,409.580994 
	C403.139038,416.409637 403.075134,423.240448 403.236237,430.065979 
	C403.318359,433.544769 405.212738,435.767059 408.859711,435.722473 
	C412.403900,435.679169 413.808502,433.309479 413.843506,430.087585 
	C413.937592,421.427856 413.964020,412.766968 413.935486,404.106781 
	C413.930878,402.706848 414.164276,400.668915 412.064728,400.638580 
	C409.900970,400.607330 410.203918,402.641937 410.200317,404.049316 
	C410.182800,410.877716 410.316742,417.707001 410.247528,424.534454 
	C410.230896,426.175354 410.976501,428.306946 408.568481,429.235291 
	C406.387665,427.873016 406.992798,425.705017 406.995667,423.809570 
	C407.005951,416.981506 407.119507,410.153534 407.197632,403.325592 
	C407.213501,401.937714 407.209290,400.492645 405.330322,400.419708 
	C403.530121,400.349854 403.173889,401.707886 403.125214,403.119263 
	C403.062073,404.948975 403.110199,406.782532 403.109833,409.580994 
M322.121063,422.636627 
	C320.611328,416.957672 315.378021,412.487671 315.497986,405.639160 
	C319.231720,406.362762 318.065887,410.047913 320.981323,410.533936 
	C324.100525,408.268036 322.561584,405.355682 321.519379,402.751282 
	C320.561096,400.356567 318.380188,399.201813 315.835846,399.670288 
	C312.909119,400.209167 311.243408,402.136108 311.019104,405.225037 
	C310.773407,408.607544 311.080627,411.873566 312.652802,414.941559 
	C314.321411,418.197784 316.039001,421.430847 317.619263,424.729584 
	C318.389984,426.338440 319.540131,428.454956 317.257751,429.491272 
	C315.323883,430.369324 314.957611,428.311005 314.528351,426.879364 
	C314.206116,425.804718 313.510529,425.191528 312.314575,425.363586 
	C311.362885,425.500488 310.924683,426.174530 310.651062,427.003876 
	C309.700684,429.884460 312.257935,434.759216 315.141235,435.566895 
	C318.671356,436.555786 322.064667,434.266663 322.727936,430.334412 
	C323.118347,428.020050 323.028809,425.687134 322.121063,422.636627 
M193.492111,417.558868 
	C193.300217,423.484650 193.188660,429.406403 194.095108,435.230591 
	C196.607437,436.201996 198.932846,435.805664 201.227448,435.730621 
	C202.529831,435.688049 203.431030,435.054871 203.583145,433.656525 
	C203.717010,432.425812 203.391174,431.476044 202.298447,430.667847 
	C197.743515,427.298981 197.324509,424.675354 200.692184,419.972351 
	C201.948761,418.217529 201.996185,416.878784 200.647110,415.113159 
	C197.304871,410.738983 197.818176,407.530884 202.214920,404.318542 
	C203.301559,403.524658 204.087372,402.488342 203.276688,401.447144 
	C201.455765,399.108582 198.711746,400.198608 196.330078,400.099579 
	C194.237900,400.012604 193.491470,401.193848 193.524948,403.265442 
	C193.597290,407.741333 193.483063,412.220245 193.492111,417.558868 
M167.007217,409.999023 
	C167.005661,416.817505 166.930710,423.637299 167.049149,430.453674 
	C167.082870,432.394897 166.195206,435.466797 169.521042,435.389526 
	C172.352463,435.323822 171.734680,432.520599 171.766068,430.657471 
	C171.878006,424.006561 171.874176,417.353424 171.879181,410.701111 
	C171.880936,408.379181 171.611145,406.095032 173.700607,404.274567 
	C174.965363,403.172699 175.310272,401.251556 173.520157,400.559845 
	C170.886230,399.541962 167.683670,399.134460 165.321198,400.711090 
	C162.611328,402.519623 165.511795,404.404510 166.194138,406.235107 
	C166.539062,407.160461 166.700333,408.154266 167.007217,409.999023 
z"/>
<path fill="#000000" opacity="1.000000" stroke="none" 
	d="
M207.326111,350.993286 
	C201.435837,362.918488 191.474640,368.016083 179.896271,365.354126 
	C168.767319,362.795471 161.704910,353.499969 161.677780,341.066895 
	C161.618912,314.095093 161.608307,287.122955 161.668335,260.151154 
	C161.699890,245.976379 172.086365,235.174744 185.488693,235.152008 
	C198.344009,235.130188 209.022125,246.129944 209.090790,259.925751 
	C209.226700,287.229675 209.134308,314.534729 209.158630,341.839294 
	C209.161346,344.891846 208.386810,347.764130 207.326111,350.993286 
M182.319458,259.509064 
	C182.274307,286.154846 182.224838,312.800629 182.191925,339.446411 
	C182.189178,341.671661 182.308273,344.268402 185.130768,344.411255 
	C188.320328,344.572723 188.466446,341.802856 188.640793,339.425201 
	C188.689407,338.762177 188.663071,338.093292 188.663345,337.427094 
	C188.673340,312.942841 188.683823,288.458588 188.687180,263.974335 
	C188.687347,262.809387 188.760773,261.620605 188.564072,260.483795 
	C187.893539,256.608368 185.787476,256.027313 182.319458,259.509064 
z"/>
<path fill="#000000" opacity="1.000000" stroke="none" 
	d="
M244.328583,334.785034 
	C244.417267,337.574768 244.139603,339.927094 244.984390,342.178436 
	C245.482391,343.505615 246.178299,344.631287 247.808533,344.508820 
	C249.338455,344.393951 250.278717,343.369049 250.512573,341.977661 
	C250.786163,340.350067 250.804291,338.667297 250.807114,337.008240 
	C250.859695,306.033966 250.883835,275.059631 250.938782,244.085373 
	C250.950821,237.298386 251.240860,236.952255 257.945984,236.958527 
	C270.443939,236.970215 270.289001,235.085587 269.818665,248.596497 
	C268.712433,280.376099 270.200256,312.158173 269.323486,343.929626 
	C268.899750,359.283356 255.752411,369.124969 241.178818,365.147217 
	C232.413895,362.754913 224.932510,353.601196 224.880585,343.965820 
	C224.696594,309.828369 224.835266,275.689301 224.785141,241.550934 
	C224.779999,238.046234 226.395935,236.797440 229.681366,236.917297 
	C232.341736,237.014374 235.009628,236.882095 237.673828,236.901077 
	C243.770050,236.944473 244.252411,237.447754 244.255905,243.400482 
	C244.273651,273.705536 244.299332,304.010620 244.328583,334.785034 
z"/>
<path fill="#000000" opacity="1.000000" stroke="none" 
	d="
M394.874481,306.038208 
	C396.892883,285.565887 398.938812,265.552277 400.851410,245.525925 
	C401.656525,237.095749 401.624359,236.992218 410.003265,236.925308 
	C411.501373,236.913330 412.999634,236.898697 414.497620,236.910187 
	C427.631805,237.010849 425.653412,235.524719 427.120758,248.760437 
	C430.565033,279.828430 433.714233,310.929199 436.963135,342.018738 
	C437.585236,347.971619 438.073242,353.938599 438.709259,359.889862 
	C439.024963,362.843811 437.884125,364.311981 434.865723,364.292267 
	C430.704834,364.265076 426.540100,364.175995 422.383789,364.315521 
	C419.079132,364.426453 417.990479,362.730408 417.893188,359.758026 
	C417.757141,355.603241 417.529602,351.450562 417.280762,347.300629 
	C417.116089,344.554291 415.833740,343.162292 412.829254,343.188751 
	C409.919159,343.214355 409.084259,344.743073 408.914215,347.203033 
	C408.673553,350.684723 408.161682,354.167297 408.203827,357.644165 
	C408.261444,362.396942 406.548065,364.942444 401.459381,364.319427 
	C400.637360,364.218811 399.796692,364.271545 398.964691,364.251282 
	C388.997742,364.008270 388.841034,366.624786 390.042206,354.145721 
	C391.571869,338.254120 393.239807,322.375854 394.874481,306.038208 
M411.216980,318.331451 
	C411.314178,320.065308 410.686035,322.244568 413.422516,322.501709 
	C414.798523,322.631012 415.683563,321.735016 415.626129,320.396362 
	C415.276398,312.244049 414.844360,304.095337 414.439758,295.945404 
	C414.053436,295.952576 413.667114,295.959717 413.280792,295.966888 
	C412.608948,303.135010 411.937103,310.303101 411.216980,318.331451 
z"/>
<path fill="#000000" opacity="1.000000" stroke="none" 
	d="
M372.031342,344.999237 
	C372.041901,350.329620 372.014374,355.160736 372.082214,359.990509 
	C372.122437,362.855591 370.959991,364.348663 367.951416,364.287476 
	C364.291016,364.213013 360.617798,364.094269 356.968933,364.311371 
	C352.980316,364.548737 351.749146,362.763153 351.777039,358.982513 
	C351.888916,343.825439 351.810364,328.666931 351.801636,313.508972 
	C351.792053,296.852020 351.663269,280.193756 351.848785,263.538971 
	C351.900208,258.921509 350.581177,256.916382 345.656708,257.075928 
	C338.880920,257.295349 338.794220,257.018341 338.841583,250.015228 
	C338.939697,235.504868 336.830750,237.035095 351.853394,236.942062 
	C360.847900,236.886353 369.844025,237.016083 378.837463,236.904617 
	C382.624634,236.857681 384.456512,238.337204 384.199188,242.220413 
	C384.089294,243.879074 384.170715,245.550674 384.171783,247.216385 
	C384.177399,256.023895 384.195190,256.175262 375.522186,257.153320 
	C371.304657,257.628906 372.109406,260.549438 372.102264,263.045929 
	C372.039703,284.866577 372.047180,306.687408 372.035126,328.508209 
	C372.032166,333.838593 372.033813,339.169006 372.031342,344.999237 
z"/>
<path fill="#000000" opacity="1.000000" stroke="none" 
	d="
M288.309631,236.968323 
	C300.092407,236.955368 311.410736,237.017197 322.727234,236.902206 
	C326.678558,236.862061 328.746307,238.256516 328.328003,242.454376 
	C328.196442,243.774658 328.317810,245.118225 328.237610,246.445953 
	C328.058075,249.417252 329.150391,252.692169 327.656067,255.296188 
	C325.855499,258.433899 322.199615,256.771759 319.371826,257.227386 
	C317.363556,257.550964 316.422546,258.584015 316.310822,260.494873 
	C316.213806,262.154602 316.152863,263.819122 316.152771,265.481506 
	C316.151337,295.772827 316.162323,326.064148 316.168610,356.355469 
	C316.170258,364.219604 316.107086,364.281769 308.544342,364.276245 
	C295.923828,364.267029 295.939697,364.267029 295.941467,351.510162 
	C295.945496,322.384277 295.936707,293.258423 295.923157,264.132538 
	C295.920013,257.311676 295.897278,257.087036 289.031464,257.224976 
	C284.525848,257.315491 282.541931,255.720963 282.863800,251.150055 
	C283.073761,248.168259 283.008545,245.158829 282.917908,242.166290 
	C282.812988,238.701843 284.125916,236.735886 288.309631,236.968323 
z"/>
<path fill="#000000" opacity="1.000000" stroke="none" 
	d="
M253.092377,173.605377 
	C252.808197,175.874374 252.674545,178.104843 250.253693,177.979782 
	C247.717178,177.848724 248.032166,175.465714 248.001556,173.736481 
	C247.910812,168.612640 247.921951,163.485947 247.974579,158.361206 
	C247.991501,156.714737 248.033768,154.704483 250.335098,154.727997 
	C252.400467,154.749115 253.009781,156.565887 253.047760,158.271194 
	C253.158127,163.228302 253.103043,168.189117 253.092377,173.605377 
z"/>
<path fill="#000000" opacity="1.000000" stroke="none" 
	d="
M289.297729,191.380219 
	C289.321991,192.958511 289.431366,194.121231 289.303223,195.257156 
	C289.177795,196.368851 288.372009,197.020737 287.254822,197.001236 
	C285.878662,196.977203 285.020660,196.083023 285.103851,194.790833 
	C285.456665,189.308395 285.939362,183.834320 286.933746,178.365372 
	C290.087433,182.240891 288.878052,186.733566 289.297729,191.380219 
z"/>
<path fill="#000000" opacity="1.000000" stroke="none" 
	d="
M225.995300,411.668396 
	C225.689590,416.317139 226.961945,420.792542 223.676117,425.989136 
	C222.686417,419.191223 222.440811,413.742767 223.610718,408.182556 
	C226.151031,408.503693 225.708221,410.089630 225.995300,411.668396 
z"/>
<path fill="#000000" opacity="1.000000" stroke="none" 
	d="
M342.836700,423.524780 
	C343.165253,418.794464 342.061737,414.355347 344.305023,410.213104 
	C346.387329,415.888184 346.461456,421.561096 344.943329,427.484131 
	C342.580322,426.706757 343.024628,425.195557 342.836700,423.524780 
z"/>
<path fill="#000000" opacity="1.000000" stroke="none" 
	d="
M281.659546,417.986877 
	C281.879395,414.438507 281.108643,411.258026 283.026855,408.308929 
	C285.165314,414.656830 284.141266,421.082306 283.489594,427.525848 
	C280.543396,424.870728 282.180756,421.479218 281.659546,417.986877 
z"/>
<path fill="#000000" opacity="1.000000" stroke="none" 
	d="
M376.805237,428.886078 
	C374.949738,421.512451 375.588348,414.290283 376.207855,407.019043 
	C378.354523,407.177734 378.430939,408.355225 378.543488,409.252472 
	C379.291107,415.212769 378.642303,421.186340 378.573517,427.154541 
	C378.563843,427.990845 378.083557,428.732910 376.805237,428.886078 
z"/>
</svg>